# xmcd
#
# Track frame offsets: 
#        150
#        15380
#        31867
#        47348
#        62676
#        76686
#        92555
#        110298
#        124271
#        144183
#        160089
#        177877
#
# Disc length: 2552 seconds
#
# Revision: 1
# Processed by: cddbd v1.5.2PL0 Copyright (c) Steve Scherf et al.
# Submitted via: ExactAudioCopy v0.99pb5
#
DISCID=7f09f60c
DTITLE=Gene Taylor and Chris Ruest - It's Too Late Now
DYEAR=2017
DGENRE=Blues
TTITLE0=Crazy Mixed Up World
TTITLE1=Mr. Police Man
TTITLE2=It's Too Late Now
TTITLE3=That Will Never Do
TTITLE4=Torpedo Boogie
TTITLE5=Keep Talking
TTITLE6=Sad and Lonely Child
TTITLE7=Date Bait
TTITLE8=Life's Like Lightning
TTITLE9=I Tried
TTITLE10=I'm Down
TTITLE11=Slipping Away
EXTD=
EXTT0=
EXTT1=
EXTT2=
EXTT3=
EXTT4=
EXTT5=
EXTT6=
EXTT7=
EXTT8=
EXTT9=
EXTT10=
EXTT11=
PLAYORDER=
